<svg width="336" height="48" viewBox="0 0 336 48" fill="none" xmlns="http://www.w3.org/2000/svg">
<path d="M14.3398 24.6486L6.59457 32.5685V43.6819H0.5V0.76123H6.59457V24.7764L29.7032 0.76123H36.6865L18.5298 20.05L37.9562 43.6819H30.8459L14.3398 24.6486Z" fill="#FF6060"/>
<path d="M82.3958 40.2329L84.8082 35.6343C87.6015 37.5504 91.9185 38.9555 96.1085 38.9555C101.568 38.9555 103.727 37.2949 103.727 34.4846C103.727 27.2034 83.2845 33.4627 83.2845 20.5609C83.2845 14.6849 88.4903 10.8527 96.7434 10.8527C100.933 10.8527 105.758 12.0024 108.552 13.7907L106.012 18.3894C103.092 16.4733 99.9177 15.8346 96.7434 15.8346C91.6646 15.8346 89.1252 17.7507 89.1252 20.3055C89.1252 27.9699 109.567 21.7106 109.567 34.3569C109.567 40.2329 104.235 43.9374 95.6007 43.9374C90.3949 44.0651 85.0621 42.4045 82.3958 40.2329Z" fill="#FF6060"/>
<path d="M145.5 24.0099V43.6819H139.913V39.3387C138.009 42.2768 134.327 43.9374 129.248 43.9374C121.884 43.9374 117.313 39.9774 117.313 34.3569C117.313 29.1195 120.614 24.9041 130.264 24.9041H139.533V23.7544C139.533 18.7726 136.612 15.9623 130.899 15.9623C127.089 15.9623 123.153 17.3674 120.614 19.4113L118.202 14.9404C121.503 12.2578 126.328 10.725 131.533 10.725C140.548 10.8527 145.5 15.1959 145.5 24.0099ZM139.66 33.7182V29.1195H130.645C124.804 29.1195 123.153 31.4188 123.153 34.1014C123.153 37.2949 125.82 39.3387 130.264 39.3387C134.708 39.4665 138.263 37.5504 139.66 33.7182Z" fill="#FF6060"/>
<path d="M63.6042 35.1233V43.8096L67.2864 41.6381V32.9517L63.6042 35.1233Z" fill="#FF6060"/>
<path d="M73.7618 24.5209L58.6524 15.7068L50.2724 10.8527L42.0193 25.2873L42.1463 38.8278L57.1287 47.6418L58.6524 46.7476V33.9736L65.3818 22.0938L72.2382 26.0538V38.8278L73.7618 37.9336V24.5209Z" fill="#FF6060"/>
<path d="M195.936 26.6015H191.472L190.548 28.7015H189.312L193.116 20.3015H194.304L198.12 28.7015H196.86L195.936 26.6015ZM195.516 25.6415L193.704 21.5255L191.892 25.6415H195.516ZM203.012 28.7975C202.172 28.7975 201.412 28.6135 200.732 28.2455C200.06 27.8695 199.532 27.3575 199.148 26.7095C198.764 26.0535 198.572 25.3175 198.572 24.5015C198.572 23.6855 198.764 22.9535 199.148 22.3055C199.532 21.6495 200.064 21.1375 200.744 20.7695C201.424 20.3935 202.184 20.2055 203.024 20.2055C203.68 20.2055 204.28 20.3175 204.824 20.5415C205.368 20.7575 205.832 21.0815 206.216 21.5135L205.436 22.2695C204.804 21.6055 204.016 21.2735 203.072 21.2735C202.448 21.2735 201.884 21.4135 201.38 21.6935C200.876 21.9735 200.48 22.3615 200.192 22.8575C199.912 23.3455 199.772 23.8935 199.772 24.5015C199.772 25.1095 199.912 25.6615 200.192 26.1575C200.48 26.6455 200.876 27.0295 201.38 27.3095C201.884 27.5895 202.448 27.7295 203.072 27.7295C204.008 27.7295 204.796 27.3935 205.436 26.7215L206.216 27.4775C205.832 27.9095 205.364 28.2375 204.812 28.4615C204.268 28.6855 203.668 28.7975 203.012 28.7975ZM211.508 28.7975C210.668 28.7975 209.908 28.6135 209.228 28.2455C208.556 27.8695 208.028 27.3575 207.644 26.7095C207.26 26.0535 207.068 25.3175 207.068 24.5015C207.068 23.6855 207.26 22.9535 207.644 22.3055C208.028 21.6495 208.56 21.1375 209.24 20.7695C209.92 20.3935 210.68 20.2055 211.52 20.2055C212.176 20.2055 212.776 20.3175 213.32 20.5415C213.864 20.7575 214.328 21.0815 214.712 21.5135L213.932 22.2695C213.3 21.6055 212.512 21.2735 211.568 21.2735C210.944 21.2735 210.38 21.4135 209.876 21.6935C209.372 21.9735 208.976 22.3615 208.688 22.8575C208.408 23.3455 208.268 23.8935 208.268 24.5015C208.268 25.1095 208.408 25.6615 208.688 26.1575C208.976 26.6455 209.372 27.0295 209.876 27.3095C210.38 27.5895 210.944 27.7295 211.568 27.7295C212.504 27.7295 213.292 27.3935 213.932 26.7215L214.712 27.4775C214.328 27.9095 213.86 28.2375 213.308 28.4615C212.764 28.6855 212.164 28.7975 211.508 28.7975ZM219.869 28.7975C218.749 28.7975 217.877 28.4775 217.253 27.8375C216.629 27.1975 216.317 26.2775 216.317 25.0775V20.3015H217.517V25.0295C217.517 26.8295 218.305 27.7295 219.881 27.7295C220.649 27.7295 221.237 27.5095 221.645 27.0695C222.053 26.6215 222.257 25.9415 222.257 25.0295V20.3015H223.421V25.0775C223.421 26.2855 223.109 27.2095 222.485 27.8495C221.861 28.4815 220.989 28.7975 219.869 28.7975ZM231.977 27.6575V28.7015H225.881V20.3015H231.809V21.3455H227.081V23.9255H231.293V24.9455H227.081V27.6575H231.977ZM233.92 20.3015H235.12V28.7015H233.92V20.3015ZM237.635 20.3015H238.835V27.6575H243.383V28.7015H237.635V20.3015Z" fill="black"/>
<path d="M276.569 26.6015H272.105L271.181 28.7015H269.945L273.749 20.3015H274.937L278.753 28.7015H277.493L276.569 26.6015ZM276.149 25.6415L274.337 21.5255L272.525 25.6415H276.149ZM286.505 20.3015C287.593 20.3015 288.449 20.5615 289.073 21.0815C289.697 21.6015 290.009 22.3175 290.009 23.2295C290.009 24.1415 289.697 24.8575 289.073 25.3775C288.449 25.8975 287.593 26.1575 286.505 26.1575H284.429V28.7015H283.229V20.3015H286.505ZM286.469 25.1135C287.229 25.1135 287.809 24.9535 288.209 24.6335C288.609 24.3055 288.809 23.8375 288.809 23.2295C288.809 22.6215 288.609 22.1575 288.209 21.8375C287.809 21.5095 287.229 21.3455 286.469 21.3455H284.429V25.1135H286.469ZM297.388 28.7015L295.576 26.1215C295.352 26.1375 295.176 26.1455 295.048 26.1455H292.972V28.7015H291.772V20.3015H295.048C296.136 20.3015 296.992 20.5615 297.616 21.0815C298.24 21.6015 298.552 22.3175 298.552 23.2295C298.552 23.8775 298.392 24.4295 298.072 24.8855C297.752 25.3415 297.296 25.6735 296.704 25.8815L298.696 28.7015H297.388ZM295.012 25.1255C295.772 25.1255 296.352 24.9615 296.752 24.6335C297.152 24.3055 297.352 23.8375 297.352 23.2295C297.352 22.6215 297.152 22.1575 296.752 21.8375C296.352 21.5095 295.772 21.3455 295.012 21.3455H292.972V25.1255H295.012ZM304.282 28.7975C303.434 28.7975 302.67 28.6135 301.99 28.2455C301.31 27.8695 300.774 27.3535 300.382 26.6975C299.998 26.0415 299.806 25.3095 299.806 24.5015C299.806 23.6935 299.998 22.9615 300.382 22.3055C300.774 21.6495 301.31 21.1375 301.99 20.7695C302.67 20.3935 303.434 20.2055 304.282 20.2055C305.122 20.2055 305.882 20.3935 306.562 20.7695C307.242 21.1375 307.774 21.6495 308.158 22.3055C308.542 22.9535 308.734 23.6855 308.734 24.5015C308.734 25.3175 308.542 26.0535 308.158 26.7095C307.774 27.3575 307.242 27.8695 306.562 28.2455C305.882 28.6135 305.122 28.7975 304.282 28.7975ZM304.282 27.7295C304.898 27.7295 305.45 27.5895 305.938 27.3095C306.434 27.0295 306.822 26.6455 307.102 26.1575C307.39 25.6615 307.534 25.1095 307.534 24.5015C307.534 23.8935 307.39 23.3455 307.102 22.8575C306.822 22.3615 306.434 21.9735 305.938 21.6935C305.45 21.4135 304.898 21.2735 304.282 21.2735C303.666 21.2735 303.106 21.4135 302.602 21.6935C302.106 21.9735 301.714 22.3615 301.426 22.8575C301.146 23.3455 301.006 23.8935 301.006 24.5015C301.006 25.1095 301.146 25.6615 301.426 26.1575C301.714 26.6455 302.106 27.0295 302.602 27.3095C303.106 27.5895 303.666 27.7295 304.282 27.7295ZM313.845 20.3015C314.933 20.3015 315.789 20.5615 316.413 21.0815C317.037 21.6015 317.349 22.3175 317.349 23.2295C317.349 24.1415 317.037 24.8575 316.413 25.3775C315.789 25.8975 314.933 26.1575 313.845 26.1575H311.769V28.7015H310.569V20.3015H313.845ZM313.809 25.1135C314.569 25.1135 315.149 24.9535 315.549 24.6335C315.949 24.3055 316.149 23.8375 316.149 23.2295C316.149 22.6215 315.949 22.1575 315.549 21.8375C315.149 21.5095 314.569 21.3455 313.809 21.3455H311.769V25.1135H313.809ZM323.021 28.7975C322.173 28.7975 321.409 28.6135 320.729 28.2455C320.049 27.8695 319.513 27.3535 319.121 26.6975C318.737 26.0415 318.545 25.3095 318.545 24.5015C318.545 23.6935 318.737 22.9615 319.121 22.3055C319.513 21.6495 320.049 21.1375 320.729 20.7695C321.409 20.3935 322.173 20.2055 323.021 20.2055C323.861 20.2055 324.621 20.3935 325.301 20.7695C325.981 21.1375 326.513 21.6495 326.897 22.3055C327.281 22.9535 327.473 23.6855 327.473 24.5015C327.473 25.3175 327.281 26.0535 326.897 26.7095C326.513 27.3575 325.981 27.8695 325.301 28.2455C324.621 28.6135 323.861 28.7975 323.021 28.7975ZM323.021 27.7295C323.637 27.7295 324.189 27.5895 324.677 27.3095C325.173 27.0295 325.561 26.6455 325.841 26.1575C326.129 25.6615 326.273 25.1095 326.273 24.5015C326.273 23.8935 326.129 23.3455 325.841 22.8575C325.561 22.3615 325.173 21.9735 324.677 21.6935C324.189 21.4135 323.637 21.2735 323.021 21.2735C322.405 21.2735 321.845 21.4135 321.341 21.6935C320.845 21.9735 320.453 22.3615 320.165 22.8575C319.885 23.3455 319.745 23.8935 319.745 24.5015C319.745 25.1095 319.885 25.6615 320.165 26.1575C320.453 26.6455 320.845 27.0295 321.341 27.3095C321.845 27.5895 322.405 27.7295 323.021 27.7295ZM331.755 28.7975C331.123 28.7975 330.511 28.7015 329.919 28.5095C329.335 28.3095 328.875 28.0535 328.539 27.7415L328.983 26.8055C329.303 27.0935 329.711 27.3295 330.207 27.5135C330.711 27.6895 331.227 27.7775 331.755 27.7775C332.451 27.7775 332.971 27.6615 333.315 27.4295C333.659 27.1895 333.831 26.8735 333.831 26.4815C333.831 26.1935 333.735 25.9615 333.543 25.7855C333.359 25.6015 333.127 25.4615 332.847 25.3655C332.575 25.2695 332.187 25.1615 331.683 25.0415C331.051 24.8895 330.539 24.7375 330.147 24.5855C329.763 24.4335 329.431 24.2015 329.151 23.8895C328.879 23.5695 328.743 23.1415 328.743 22.6055C328.743 22.1575 328.859 21.7535 329.091 21.3935C329.331 21.0335 329.691 20.7455 330.171 20.5295C330.651 20.3135 331.247 20.2055 331.959 20.2055C332.455 20.2055 332.943 20.2695 333.423 20.3975C333.903 20.5255 334.315 20.7095 334.659 20.9495L334.263 21.9095C333.911 21.6855 333.535 21.5175 333.135 21.4055C332.735 21.2855 332.343 21.2255 331.959 21.2255C331.279 21.2255 330.767 21.3495 330.423 21.5975C330.087 21.8455 329.919 22.1655 329.919 22.5575C329.919 22.8455 330.015 23.0815 330.207 23.2655C330.399 23.4415 330.635 23.5815 330.915 23.6855C331.203 23.7815 331.591 23.8855 332.079 23.9975C332.711 24.1495 333.219 24.3015 333.603 24.4535C333.987 24.6055 334.315 24.8375 334.587 25.1495C334.867 25.4615 335.007 25.8815 335.007 26.4095C335.007 26.8495 334.887 27.2535 334.647 27.6215C334.407 27.9815 334.043 28.2695 333.555 28.4855C333.067 28.6935 332.467 28.7975 331.755 28.7975Z" fill="black"/>
</svg>
